<?xml version="1.0" encoding="utf-8"?>
<!-- Generator: Adobe Illustrator 24.2.1, SVG Export Plug-In . SVG Version: 6.00 Build 0)  -->
<svg version="1.1" id="Layer_1" xmlns="http://www.w3.org/2000/svg" xmlns:xlink="http://www.w3.org/1999/xlink" x="0px" y="0px"
	  viewBox="0 0 621.6 139.9" style="enable-background:new 0 0 621.6 139.9;" xml:space="preserve"
	>
<style type="text/css">
	.st0{fill:#FFFFFF;}
</style>
<g>
	<g>
		<path class="st0" d="M212.3,22.8c2.3-3.9,5.4-6.9,9.3-9.1c3.9-2.2,8.2-3.3,12.9-3.3c5.3,0,10.1,1.3,14.2,3.9
			c4.2,2.6,7.2,6.3,9,11.1h-9.9c-1.3-2.6-3.1-4.6-5.4-5.9s-5-1.9-8-1.9c-3.3,0-6.3,0.7-8.9,2.2c-2.6,1.5-4.6,3.6-6.1,6.4
			s-2.2,6-2.2,9.7s0.7,6.9,2.2,9.7s3.5,4.9,6.1,6.4s5.5,2.3,8.9,2.3c3,0,5.7-0.6,8-1.9s4.1-3.3,5.4-5.9h9.9c-1.9,4.8-4.9,8.5-9,11.1
			c-4.2,2.6-8.9,3.9-14.2,3.9c-4.7,0-9-1.1-12.9-3.3s-7-5.2-9.3-9.1s-3.4-8.3-3.4-13.2C208.9,31.1,210,26.7,212.3,22.8z"/>
		<path class="st0" d="M267,30.5c1.7-3.1,3.9-5.5,6.8-7.2s6-2.6,9.5-2.6c3.1,0,5.8,0.6,8.2,1.8c2.3,1.2,4.2,2.7,5.6,4.6v-5.8h8.3V61
			H297v-5.9c-1.4,1.9-3.3,3.4-5.7,4.7c-2.4,1.2-5.1,1.9-8.2,1.9c-3.4,0-6.5-0.9-9.4-2.6c-2.8-1.8-5.1-4.2-6.7-7.3
			c-1.7-3.1-2.5-6.7-2.5-10.7S265.3,33.6,267,30.5z M295.3,34.1c-1.1-2-2.6-3.6-4.4-4.6c-1.8-1.1-3.8-1.6-5.9-1.6s-4.1,0.5-5.9,1.5
			s-3.3,2.5-4.4,4.5S273,38.3,273,41c0,2.7,0.6,5.1,1.7,7.2c1.1,2.1,2.6,3.6,4.5,4.7c1.8,1.1,3.8,1.6,5.9,1.6s4.1-0.5,5.9-1.6
			s3.3-2.6,4.4-4.6s1.7-4.4,1.7-7.2S296.4,36.1,295.3,34.1z"/>
		<path class="st0" d="M372.5,22.7c2.5,1.3,4.4,3.2,5.8,5.8c1.4,2.5,2.1,5.6,2.1,9.2v23.4h-8.1V38.9c0-3.6-0.9-6.3-2.7-8.2
			c-1.8-1.9-4.2-2.8-7.3-2.8c-3.1,0-5.5,0.9-7.3,2.8c-1.8,1.9-2.7,4.6-2.7,8.2v22.2h-8.1V38.9c0-3.6-0.9-6.3-2.7-8.2
			c-1.8-1.9-4.2-2.8-7.3-2.8c-3.1,0-5.5,0.9-7.3,2.8c-1.8,1.9-2.7,4.6-2.7,8.2v22.2H316V21.4h8.2V26c1.3-1.6,3-2.9,5.1-3.8
			s4.3-1.4,6.6-1.4c3.2,0,6,0.7,8.5,2s4.4,3.3,5.8,5.8c1.2-2.4,3.1-4.3,5.6-5.7c2.5-1.4,5.3-2.1,8.2-2.1
			C367.2,20.8,370,21.4,372.5,22.7z"/>
		<path class="st0" d="M404.8,22.6c2.4-1.2,5.1-1.9,8.1-1.9c3.5,0,6.6,0.9,9.5,2.6s5.1,4.1,6.7,7.2s2.4,6.6,2.4,10.6
			s-0.8,7.5-2.4,10.7c-1.6,3.1-3.9,5.6-6.7,7.3c-2.9,1.8-6,2.6-9.5,2.6c-3,0-5.7-0.6-8.1-1.8s-4.3-2.7-5.8-4.6V80h-8.2V21.4h8.2v5.8
			C400.5,25.4,402.4,23.9,404.8,22.6z M421.5,34c-1.1-2-2.6-3.5-4.5-4.5c-1.8-1-3.8-1.5-5.9-1.5s-4,0.5-5.9,1.6
			c-1.8,1.1-3.3,2.6-4.5,4.6s-1.7,4.4-1.7,7.1s0.6,5.1,1.7,7.2c1.1,2,2.6,3.6,4.5,4.6c1.8,1.1,3.8,1.6,5.9,1.6s4.1-0.5,5.9-1.6
			s3.3-2.7,4.5-4.7c1.1-2.1,1.7-4.5,1.7-7.2C423.2,38.3,422.6,36,421.5,34z"/>
		<path class="st0" d="M475.8,44.3h-30.3c0.2,3.2,1.4,5.7,3.5,7.6c2.1,1.9,4.7,2.9,7.8,2.9c4.4,0,7.5-1.8,9.4-5.5h8.9
			c-1.2,3.6-3.4,6.6-6.5,9c-3.1,2.3-7,3.5-11.7,3.5c-3.8,0-7.2-0.9-10.2-2.6c-3-1.7-5.4-4.1-7.1-7.2c-1.7-3.1-2.6-6.7-2.6-10.8
			s0.8-7.7,2.5-10.8s4-5.5,7-7.2s6.4-2.5,10.3-2.5c3.7,0,7.1,0.8,10,2.4s5.2,3.9,6.8,6.9s2.4,6.3,2.4,10.2
			C476,41.8,475.9,43.1,475.8,44.3z M467.5,37.7c0-3-1.1-5.4-3.2-7.3c-2.1-1.8-4.7-2.7-7.8-2.7c-2.8,0-5.3,0.9-7.3,2.7
			c-2,1.8-3.2,4.2-3.6,7.3H467.5z"/>
		<path class="st0" d="M490.1,60c-2.5-1.1-4.4-2.7-5.9-4.6c-1.4-1.9-2.2-4.1-2.3-6.5h8.5c0.1,1.7,0.9,3.1,2.4,4.2
			c1.5,1.1,3.3,1.7,5.5,1.7c2.3,0,4.1-0.4,5.4-1.3c1.3-0.9,1.9-2,1.9-3.4c0-1.5-0.7-2.6-2.1-3.3s-3.7-1.5-6.7-2.4
			c-3-0.8-5.4-1.6-7.3-2.4c-1.9-0.8-3.5-1.9-4.9-3.5s-2.1-3.7-2.1-6.3c0-2.1,0.6-4,1.9-5.8c1.2-1.8,3-3.1,5.4-4.1c2.3-1,5-1.5,8-1.5
			c4.5,0,8.1,1.1,10.9,3.4s4.2,5.4,4.4,9.3H505c-0.1-1.8-0.9-3.2-2.2-4.2c-1.3-1.1-3-1.6-5.3-1.6c-2.2,0-3.8,0.4-5,1.2
			c-1.2,0.8-1.7,1.9-1.7,3.2c0,1.1,0.4,1.9,1.2,2.7c0.8,0.7,1.7,1.3,2.8,1.7c1.1,0.4,2.7,0.9,4.9,1.5c2.9,0.8,5.2,1.5,7.1,2.3
			c1.8,0.8,3.4,2,4.8,3.5c1.3,1.5,2,3.6,2.1,6.1c0,2.3-0.6,4.3-1.9,6c-1.2,1.8-3,3.2-5.3,4.2s-5,1.5-8,1.5
			C495.4,61.7,492.6,61.2,490.1,60z"/>
		<path class="st0" d="M523,14.7c-1-1-1.5-2.3-1.5-3.7c0-1.5,0.5-2.7,1.5-3.7s2.3-1.5,3.7-1.5s2.7,0.5,3.7,1.5s1.5,2.3,1.5,3.7
			c0,1.5-0.5,2.7-1.5,3.7s-2.2,1.5-3.7,1.5S524,15.7,523,14.7z M530.8,21.4v39.7h-8.2V21.4H530.8z"/>
		<path class="st0" d="M570,22.7c2.5,1.3,4.4,3.2,5.8,5.8c1.4,2.5,2.1,5.6,2.1,9.2v23.4h-8.1V38.9c0-3.6-0.9-6.3-2.7-8.2
			c-1.8-1.9-4.2-2.8-7.3-2.8s-5.5,0.9-7.3,2.8c-1.8,1.9-2.7,4.6-2.7,8.2v22.2h-8.2V21.4h8.2V26c1.3-1.6,3.1-2.9,5.1-3.8
			c2.1-0.9,4.3-1.4,6.7-1.4C564.7,20.8,567.5,21.4,570,22.7z"/>
		<path class="st0" d="M605.3,41l12.8,20.1h-9.3l-8.6-13.5l-8.1,13.5h-8.6l12.8-19.5l-12.8-20.2h9.3l8.6,13.5l8.1-13.5h8.6L605.3,41
			z"/>
	</g>
	<g>
		<path class="st0" d="M268.8,90.3l-13.5,48.9h-3.4l-13.4-44.1l-13.6,44.1h-3.3l-13.3-48.9h3.3l11.7,44.5l13.5-44.5h3.5l13.3,44.8
			l11.8-44.8L268.8,90.3L268.8,90.3z"/>
		<path class="st0" d="M283.8,137.4c-2.8-1.6-5.1-3.8-6.7-6.8s-2.4-6.4-2.4-10.4c0-3.9,0.8-7.3,2.4-10.3s3.9-5.2,6.7-6.8
			c2.9-1.6,6.1-2.3,9.6-2.3s6.7,0.8,9.5,2.3c2.8,1.6,5.1,3.8,6.7,6.7s2.4,6.4,2.4,10.3c0,4-0.8,7.4-2.4,10.4s-3.9,5.2-6.7,6.8
			c-2.9,1.6-6.1,2.4-9.6,2.4C289.8,139.8,286.6,139,283.8,137.4z M301,135.1c2.4-1.2,4.3-3.1,5.8-5.6c1.4-2.5,2.2-5.6,2.2-9.3
			c0-3.6-0.7-6.7-2.2-9.2c-1.4-2.5-3.3-4.4-5.7-5.6c-2.4-1.2-4.9-1.8-7.7-1.8c-2.7,0-5.3,0.6-7.6,1.8c-2.3,1.2-4.2,3.1-5.7,5.6
			c-1.4,2.5-2.2,5.6-2.2,9.2c0,3.7,0.7,6.8,2.1,9.3s3.3,4.4,5.6,5.6c2.3,1.2,4.9,1.8,7.6,1.8C296.1,137,298.6,136.4,301,135.1z"/>
		<path class="st0" d="M377,104.7c2.7,2.8,4.1,6.9,4.1,12.3v22.2H378v-22c0-4.5-1.1-8-3.2-10.4c-2.2-2.4-5.1-3.6-8.9-3.6
			c-3.9,0-7,1.3-9.4,4s-3.6,6.6-3.6,11.7V139h-3.1v-22c0-4.5-1.1-8-3.2-10.4c-2.2-2.4-5.1-3.6-8.9-3.6c-3.9,0-7,1.3-9.4,4
			s-3.6,6.6-3.6,11.7v20.1h-3.1V101h3.1v8.2c1.1-3,2.8-5.2,5.2-6.7c2.4-1.5,5.1-2.3,8.3-2.3c3.4,0,6.4,0.9,8.9,2.7
			c2.5,1.8,4.2,4.4,5.1,7.9c0.9-3.5,2.6-6.1,5.2-7.9s5.6-2.7,9-2.7C370.7,100.6,374.2,102,377,104.7z"/>
		<path class="st0" d="M401.3,103.8c2.8-2,6.2-2.9,10.1-2.9c3.5,0,6.7,0.8,9.4,2.4c2.8,1.6,4.9,3.8,6.5,6.8
			c1.6,2.9,2.3,6.3,2.3,10.2s-0.8,7.3-2.3,10.3c-1.6,3-3.7,5.2-6.5,6.8s-5.9,2.4-9.4,2.4c-4,0-7.3-1-10.1-2.9
			c-2.8-2-4.8-4.5-5.9-7.5v9.9h-3.1V87.6h3.1v23.7C396.5,108.3,398.5,105.7,401.3,103.8z M424.5,111.3c-1.3-2.5-3.1-4.4-5.5-5.8
			c-2.3-1.3-5.1-2-8.1-2c-2.9,0-5.6,0.7-7.9,2.1c-2.4,1.4-4.2,3.3-5.6,5.9c-1.3,2.5-2,5.4-2,8.7c0,3.3,0.7,6.3,2,8.8
			s3.2,4.5,5.6,5.9s5,2.1,7.9,2.1c3.1,0,5.8-0.7,8.1-2c2.3-1.3,4.2-3.3,5.5-5.8s2-5.5,2-8.9C426.4,116.8,425.8,113.8,424.5,111.3z"
			/>
		<path class="st0" d="M459.9,101.9c2-3.8,4.8-6.7,8.4-8.9c3.6-2.1,7.5-3.2,12-3.2c5.6,0,10.3,1.3,14.1,3.9
			c3.8,2.6,6.6,6.2,8.4,10.9H499c-1.4-3.7-3.7-6.7-6.9-8.8s-7.2-3.2-11.9-3.2c-3.8,0-7.2,0.9-10.2,2.7c-3.1,1.8-5.5,4.4-7.2,7.7
			c-1.8,3.4-2.6,7.3-2.6,11.8s0.9,8.4,2.6,11.7c1.8,3.3,4.2,5.9,7.2,7.7c3.1,1.8,6.5,2.7,10.2,2.7c4.7,0,8.7-1.1,11.9-3.2
			c3.2-2.2,5.5-5.1,6.9-8.8h3.6c-1.8,4.7-4.6,8.3-8.4,10.9c-3.8,2.6-8.5,3.9-14.1,3.9c-4.4,0-8.4-1.1-12-3.2
			c-3.6-2.1-6.3-5.1-8.4-8.9s-3-8.1-3-12.9C456.8,110,457.8,105.7,459.9,101.9z"/>
		<path class="st0" d="M512.8,110c1.6-2.9,3.7-5.2,6.5-6.8c2.8-1.6,5.9-2.4,9.4-2.4c4,0,7.4,1,10.2,2.9c2.8,2,4.7,4.4,5.9,7.5v-9.9
			h3.1v37.8h-3.1v-10c-1.1,3.1-3.1,5.6-5.9,7.6c-2.8,2-6.2,3-10.1,3c-3.5,0-6.7-0.8-9.4-2.4c-2.8-1.6-4.9-3.9-6.5-6.8
			c-1.6-3-2.3-6.4-2.3-10.3S511.3,112.9,512.8,110z M542.7,111.5c-1.4-2.5-3.2-4.5-5.6-5.9c-2.4-1.4-5-2.1-7.9-2.1
			c-3.1,0-5.8,0.7-8.1,2s-4.1,3.2-5.4,5.8c-1.3,2.5-2,5.5-2,8.9s0.7,6.4,2,8.9s3.1,4.4,5.5,5.8c2.3,1.3,5,2,8,2c2.9,0,5.6-0.7,8-2.1
			c2.4-1.4,4.3-3.3,5.6-5.9c1.3-2.5,2-5.5,2-8.8C544.8,116.9,544.1,114,542.7,111.5z"/>
		<path class="st0" d="M567.4,102.8c2.4-1.5,5.4-2.2,9.1-2.2v3.3h-1c-3.7,0-6.8,1.1-9.3,3.2s-3.7,5.6-3.7,10.4v21.8h-3.1v-37.8h3.1
			v7.8C563.4,106.4,565.1,104.2,567.4,102.8z"/>
		<path class="st0" d="M617.7,121.5H585c0.1,3.4,0.8,6.2,2.2,8.6c1.4,2.3,3.2,4.1,5.5,5.2c2.3,1.2,4.8,1.7,7.5,1.7
			c3.7,0,6.8-0.9,9.3-2.8c2.5-1.8,4.1-4.3,4.7-7.5h3.3c-0.7,3.9-2.6,7-5.7,9.4c-3.1,2.4-6.9,3.6-11.6,3.6c-3.5,0-6.7-0.8-9.5-2.4
			c-2.8-1.6-5-3.8-6.6-6.8s-2.4-6.4-2.4-10.4c0-3.9,0.8-7.4,2.3-10.3c1.6-2.9,3.7-5.2,6.5-6.7s6-2.3,9.5-2.3c3.6,0,6.8,0.8,9.4,2.3
			c2.7,1.6,4.7,3.6,6.1,6.2c1.4,2.6,2.1,5.4,2.1,8.3C617.8,119.4,617.8,120.7,617.7,121.5z M612.9,110.4c-1.3-2.3-3.1-4.1-5.4-5.2
			c-2.3-1.1-4.7-1.7-7.4-1.7c-2.6,0-5.1,0.6-7.4,1.7c-2.3,1.1-4.1,2.9-5.5,5.2c-1.4,2.3-2.2,5.2-2.3,8.5h29.7
			C614.8,115.6,614.2,112.7,612.9,110.4z"/>
	</g>
</g>
<g>
	<g>
		<path class="st0" d="M183.9,34.5c0-8.9-2.3-21.1-13.3-28.2c-5.7-3.7-13.1-5.5-21.3-5.3c-7.6,0.2-15.5,2.1-23,5.4
			c-12.6,5.6-55.8,5.7-68.5,0C47.2,1.7,35.6-0.1,26,1.5c-1.5,0.2-2.5,1.6-2.2,3.1c0.2,1.5,1.6,2.5,3.1,2.2c8.6-1.5,19,0.2,28.6,4.4
			c14,6.2,58.9,6.2,72.9,0c14.4-6.4,29.8-6.6,39.2-0.5c7.2,4.7,10.9,12.7,10.9,23.7c0,7.1-1.6,13.7-4.8,19.8
			c-0.7-1.5-1.5-2.8-2.7-3.9c-2.1-2.1-4.7-3.3-7.8-3.8c1.6-3.6,2.4-6.8,2.4-9.8c0-11.4-6.6-15.8-12.9-16.2
			c-10.2-0.6-22.3,9-23.9,24.2c-2.5,22.6-11,31-19.2,47c-3.5,6.8-6.3,16.5-8.3,28.8c-1,5.9-1.5,11-1.8,13.9H84.3
			c-0.3-2.9-0.8-7.9-1.8-13.9c-2-12.3-4.8-22-8.3-28.8c-8.2-16-16.8-24.4-19.2-47C53.3,29.5,41.3,20,31.1,20.5
			c-6.2,0.3-12.9,4.8-12.9,16.2c0,3,0.8,6.3,2.4,9.8c-2.9,0.5-5.5,1.7-7.5,3.7c-1.2,1.2-2.2,2.7-2.8,4.3c-3.3-6.2-5-13-5-20.2
			c0.1-11.2,4-19.3,11.7-24c1.3-0.8,1.7-2.4,0.9-3.7c-0.8-1.3-2.4-1.7-3.7-0.9C7.7,9.6,0,17.8,0,34.5C0,45,3.2,54.7,9.4,63.2
			c0.7,6.3,4.3,13.1,9.8,18.7c7.1,7.1,15.1,10,21.1,10c4.1,0,7.7-1.3,10.3-3.9s4-6.2,4-10.4c0-6.9-3.7-14.8-10-21.1
			c-4.9-4.9-11.3-8.8-18-9.8c-2-3.8-3.1-7.1-3.1-9.9c0-6.7,2.8-10.5,7.8-10.8c7.6-0.4,17,7.4,18.3,19.4
			c2.6,23.9,11.8,33.3,19.8,48.9c7.7,15.1,9.7,42.8,9.7,43c0.1,1.4,1.3,2.5,2.7,2.5H102c1.4,0,2.6-1.1,2.7-2.5c0-0.3,2-27.9,9.7-43
			c8-15.6,17.2-25,19.8-48.9c1.3-11.9,10.7-19.8,18.3-19.4c5,0.3,7.8,4.1,7.8,10.8c0,2.8-1,6.1-3.1,9.9c-6.6,1.1-12.9,5-17.6,9.7
			c-6.3,6.3-10,14.1-10,21.1c0,4.2,1.4,7.8,4,10.4s6.2,3.9,10.3,3.9c6.1,0,14.1-3,21.1-10c1.1-1.1,1-2.8,0-3.8c-1.1-1.1-2.8-1-3.8,0
			c-8.1,8.1-19,10.9-23.9,6.1c-5.3-5.3-1.3-16.6,6-23.8c8.1-8.1,19-10.9,23.9-6.1c3.8,3.7,2.5,10.3,0.2,15.1
			c-0.6,1.3-0.1,2.9,1.3,3.6c1.3,0.6,2.9,0.1,3.6-1.3c1.5-3.1,2.3-6.2,2.6-9C180.8,54.3,183.9,44.8,183.9,34.5L183.9,34.5z
			 M40.9,60.3c8,8,10.9,19,6,23.8C42,89,31.1,86.2,23,78.1c-7.8-7.8-11-18.8-6-23.8C22.2,49.1,33.4,52.8,40.9,60.3z"/>
		<path class="st0" d="M100,87c-3.7,7.3-6.3,16.5-8.1,25.2c-0.6-2.9-1.3-5.9-2.1-8.9c-0.4-1.4-1.9-2.3-3.3-1.9s-2.3,1.9-1.9,3.3
			c2.2,8,3.5,16.3,4.2,21.8c0.2,1.5,1.5,2.7,3.1,2.7s2.9-1.2,3.1-2.7c2.6-19.9,6.8-31.1,9.8-37c8.4-16.3,16.3-23.8,18.7-45.1
			c1.1-9.7,6-18.7,14.1-24.3c3-2,0.6-6.7-2.8-5.5c-4.8,1.7-12.6,6.8-42.9,6.8l0,0c-30.1,0-37.8-5.1-42.8-6.8
			c-3.4-1.2-5.8,3.5-2.8,5.5c8.1,5.5,13,14.6,14.1,24.3C62.7,65.7,70.7,73.1,79,89.5c0.7,1.4,1.4,3,2.1,4.6c0.6,1.4,2.1,2,3.5,1.5
			c1.4-0.6,2-2.1,1.5-3.5c-0.7-1.8-1.5-3.5-2.3-5c-8.4-16.4-15.9-23.3-18.1-43.3c-0.8-7.6-3.7-14.7-8.2-20.4
			c11.6,3.1,27.3,3.4,34.4,3.4l0,0c7.1,0,22.8-0.4,34.4-3.4c-4.5,5.8-7.4,12.9-8.2,20.4C115.9,63.7,108.4,70.6,100,87L100,87z"/>
	</g>
</g>
</svg>
