<svg viewBox="0 0 229 62" fill="none" xmlns="http://www.w3.org/2000/svg">
<g clip-path="url(#clip0)">
<path d="M58.8857 19.5644C58.8857 16.7289 58.1492 12.8419 54.627 10.5798C52.8018 9.40101 50.4323 8.82752 47.8066 8.89124C45.3731 8.95496 42.8434 9.56031 40.4419 10.6117C36.4073 12.3959 22.5745 12.4277 18.5079 10.6117C15.1137 9.0824 11.3993 8.54078 8.32533 9.05054C7.84502 9.11426 7.52482 9.56031 7.62088 10.0382C7.68492 10.5161 8.13321 10.8347 8.61352 10.7391C11.3673 10.2612 14.6974 10.8029 17.7714 12.141C22.2543 14.1163 36.6315 14.1163 41.1143 12.141C45.7253 10.1019 50.6564 10.0382 53.6664 11.9817C55.9719 13.4791 57.1566 16.0279 57.1566 19.5326C57.1566 21.7946 56.6443 23.8974 55.6196 25.8409C55.3955 25.363 55.1393 24.9488 54.7551 24.5983C54.0826 23.9293 53.2501 23.5469 52.2575 23.3876C52.7698 22.2407 53.026 21.2211 53.026 20.2653C53.026 16.6333 50.9126 15.2314 48.8953 15.104C45.6292 14.9128 41.7547 17.9714 41.2424 22.8142C40.4419 30.0146 37.7202 32.6908 35.0945 37.7885C33.9738 39.955 33.0772 43.0454 32.4368 46.9642C32.1166 48.844 31.9565 50.4688 31.8604 51.3928H26.9933C26.8972 50.4688 26.7371 48.8758 26.4169 46.9642C25.7765 43.0454 24.8799 39.955 23.7592 37.7885C21.1335 32.7227 18.4118 30.0783 17.6113 22.8779C17.0669 18.0351 13.2245 15.0084 9.95838 15.1677C7.97311 15.2633 5.82773 16.697 5.82773 20.3291C5.82773 21.2849 6.0839 22.3363 6.59623 23.4514C5.66763 23.6107 4.8351 23.993 4.19469 24.6302C3.81044 25.0125 3.49024 25.4904 3.29811 26.0002C2.24144 24.0248 1.69709 21.8584 1.69709 19.5644C1.72911 15.9324 2.97791 13.3198 5.44349 11.8542C5.85975 11.5994 5.98784 11.0896 5.73167 10.6754C5.47551 10.2612 4.96318 10.1338 4.54691 10.3887C2.46558 11.6312 0 14.2119 0 19.5644C0 22.9097 1.02466 25.9683 3.00993 28.7083C3.23407 30.7155 4.38681 32.882 6.14794 34.6662C8.42139 36.9282 10.983 37.8522 12.9043 37.8522C14.2171 37.8522 15.3698 37.438 16.2024 36.6096C17.0349 35.7813 17.4832 34.6343 17.4832 33.2962C17.4832 31.0978 16.2984 28.5809 14.2811 26.5737C12.7121 25.0125 10.6628 23.77 8.51746 23.4514C7.87705 22.2407 7.52482 21.1893 7.52482 20.2972C7.52482 18.1626 8.42139 16.9519 10.0224 16.8563C12.456 16.7289 15.4659 19.214 15.8822 23.0372C16.7147 30.6518 19.6606 33.6466 22.2222 38.6168C24.6878 43.4277 25.3282 52.253 25.3282 52.3167C25.3602 52.7628 25.7445 53.1132 26.1928 53.1132H32.6609C33.1092 53.1132 33.4935 52.7628 33.5255 52.3167C33.5255 52.2211 34.1659 43.4277 36.6315 38.6168C39.1931 33.6466 42.139 30.6518 42.9715 23.0372C43.3878 19.2458 46.3977 16.7289 48.8313 16.8563C50.4323 16.9519 51.3289 18.1626 51.3289 20.2972C51.3289 21.1893 51.0087 22.2407 50.3362 23.4514C48.2229 23.8018 46.2056 25.0444 44.7006 26.5418C42.6833 28.549 41.4986 31.0341 41.4986 33.2643C41.4986 34.6024 41.9469 35.7494 42.7794 36.5778C43.6119 37.4061 44.7647 37.8203 46.0775 37.8203C48.0308 37.8203 50.5924 36.8645 52.8338 34.6343C53.1861 34.2838 53.154 33.7422 52.8338 33.4236C52.4816 33.0732 51.9373 33.105 51.6171 33.4236C49.0234 36.0043 45.5332 36.8964 43.9642 35.3671C42.2671 33.6785 43.5479 30.0783 45.8854 27.7844C48.4791 25.2037 51.9693 24.3116 53.5383 25.8409C54.7551 27.0197 54.3388 29.1225 53.6023 30.6518C53.4102 31.066 53.5703 31.5757 54.0186 31.7987C54.4349 31.9899 54.9472 31.8306 55.1713 31.3846C55.6516 30.3969 55.9078 29.4092 56.0039 28.5171C57.8931 25.8409 58.8857 22.846 58.8857 19.5644ZM13.0964 27.7844C15.658 30.3332 16.5866 33.8378 15.0176 35.3671C13.4486 36.8964 9.95838 36.0362 7.36472 33.4236C4.86712 30.9385 3.84246 27.4339 5.44349 25.8409C7.10855 24.216 10.6949 25.3948 13.0964 27.7844Z" fill="#88363B"/>
<path d="M32.0206 36.2885C30.8359 38.6143 30.0033 41.5455 29.427 44.3173C29.2348 43.3934 29.0107 42.4376 28.7545 41.4818C28.6264 41.0357 28.1461 40.749 27.6978 40.8764C27.2496 41.0038 26.9614 41.4818 27.0895 41.9278C27.7939 44.4766 28.2102 47.121 28.4343 48.8733C28.4984 49.3512 28.9146 49.7336 29.427 49.7336C29.9393 49.7336 30.3556 49.3512 30.4196 48.8733C31.2521 42.5331 32.597 38.9648 33.5576 37.085C36.2473 31.8918 38.7769 29.5023 39.5454 22.7161C39.8977 19.6256 41.4667 16.7582 44.0603 14.974C45.0209 14.3368 44.2524 12.8394 43.1638 13.2217C41.6268 13.7634 39.1292 15.3882 29.427 15.3882C19.7888 15.3882 17.3232 13.7634 15.7222 13.2217C14.6335 12.8394 13.865 14.3368 14.8256 14.974C17.4193 16.7264 18.9883 19.6256 19.3405 22.7161C20.077 29.4704 22.6386 31.8281 25.2963 37.0532C25.5205 37.4992 25.7446 38.009 25.9687 38.5188C26.1609 38.9648 26.6412 39.156 27.0895 38.9967C27.5377 38.8055 27.7299 38.3276 27.5698 37.8815C27.3456 37.3081 27.0895 36.7664 26.8333 36.2885C24.1436 31.0635 21.742 28.8651 21.0376 22.4931C20.7814 20.0717 19.8528 17.8096 18.4119 15.9936C22.1263 16.9812 27.1535 17.0768 29.427 17.0768C31.7004 17.0768 36.7276 16.9494 40.442 15.9936C39.0011 17.8415 38.0725 20.1035 37.8163 22.4931C37.1119 28.8651 34.7103 31.0635 32.0206 36.2885Z" fill="#88363B"/>
</g>
<g clip-path="url(#clip1)">
<path d="M77.662 14.5037C78.4456 13.2158 79.5017 12.225 80.8304 11.4985C82.1591 10.772 83.6241 10.4087 85.2253 10.4087C87.031 10.4087 88.6663 10.838 90.0631 11.6966C91.494 12.5553 92.5161 13.7772 93.1294 15.3623H89.7565C89.3136 14.5037 88.7004 13.8432 87.9168 13.4139C87.1332 12.9846 86.2133 12.7864 85.1913 12.7864C84.067 12.7864 83.0449 13.0176 82.1591 13.513C81.2733 14.0083 80.5919 14.7019 80.0809 15.6265C79.5699 16.5512 79.3314 17.608 79.3314 18.8299C79.3314 20.0518 79.5699 21.1086 80.0809 22.0333C80.5919 22.958 81.2733 23.6515 82.1591 24.1468C83.0449 24.6422 84.0329 24.9064 85.1913 24.9064C86.2133 24.9064 87.1332 24.7082 87.9168 24.2789C88.7004 23.8496 89.3136 23.1891 89.7565 22.3305H93.1294C92.4821 23.9157 91.46 25.1376 90.0631 25.9962C88.6322 26.8548 87.031 27.2842 85.2253 27.2842C83.6241 27.2842 82.1591 26.9209 80.8304 26.1943C79.5017 25.4678 78.4456 24.4771 77.662 23.1891C76.8784 21.9012 76.5037 20.4481 76.5037 18.8299C76.5037 17.2447 76.8784 15.7917 77.662 14.5037Z" fill="#0B0D17"/>
<path d="M96.2976 17.0464C96.8768 16.0227 97.6263 15.2301 98.6143 14.6687C99.6023 14.1073 100.658 13.8101 101.851 13.8101C102.907 13.8101 103.827 14.0082 104.645 14.4045C105.428 14.8008 106.075 15.2962 106.552 15.9236V14.0082H109.38V27.1189H106.552V25.1705C106.075 25.7979 105.428 26.2933 104.61 26.7226C103.793 27.1189 102.873 27.3501 101.817 27.3501C100.658 27.3501 99.6023 27.0528 98.6143 26.4914C97.6604 25.897 96.8768 25.1044 96.3317 24.0806C95.7525 23.0569 95.48 21.868 95.48 20.547C95.48 19.2261 95.7525 18.0702 96.2976 17.0464ZM105.939 18.2353C105.564 17.5748 105.053 17.0464 104.44 16.7162C103.827 16.3529 103.146 16.1878 102.43 16.1878C101.715 16.1878 101.033 16.3529 100.42 16.6832C99.8068 17.0134 99.2957 17.5088 98.921 18.1693C98.5462 18.8298 98.3418 19.6224 98.3418 20.514C98.3418 21.4057 98.5462 22.1983 98.921 22.8918C99.2957 23.5853 99.8068 24.0806 100.454 24.4439C101.067 24.8072 101.749 24.9723 102.464 24.9723C103.18 24.9723 103.861 24.8072 104.474 24.4439C105.087 24.0806 105.598 23.5853 105.973 22.9248C106.348 22.2643 106.552 21.4717 106.552 20.547C106.552 19.6224 106.348 18.9288 105.939 18.2353Z" fill="#0B0D17"/>
<path d="M132.24 14.5042C133.092 14.9336 133.74 15.561 134.216 16.4197C134.693 17.2453 134.932 18.269 134.932 19.4579V27.1856H132.172V19.8542C132.172 18.6653 131.866 17.7737 131.252 17.1462C130.639 16.5187 129.822 16.2215 128.765 16.2215C127.709 16.2215 126.892 16.5187 126.278 17.1462C125.665 17.7737 125.359 18.6653 125.359 19.8542V27.1856H122.599V19.8542C122.599 18.6653 122.292 17.7737 121.679 17.1462C121.066 16.5187 120.248 16.2215 119.192 16.2215C118.136 16.2215 117.318 16.5187 116.705 17.1462C116.092 17.7737 115.785 18.6653 115.785 19.8542V27.1856H112.991V14.0749H115.785V15.561C116.228 15.0326 116.807 14.6033 117.523 14.3061C118.238 14.0089 118.988 13.8438 119.771 13.8438C120.861 13.8438 121.815 14.0749 122.667 14.5042C123.519 14.9336 124.166 15.594 124.643 16.4197C125.052 15.6271 125.699 14.9996 126.551 14.5373C127.403 14.0749 128.357 13.8438 129.345 13.8438C130.469 13.8438 131.389 14.0749 132.24 14.5042Z" fill="#0B0D17"/>
<path d="M143.245 14.4712C144.063 14.0749 144.983 13.8438 146.005 13.8438C147.197 13.8438 148.253 14.141 149.241 14.7024C150.229 15.2638 150.979 16.0564 151.524 17.0801C152.069 18.1039 152.341 19.2597 152.341 20.5807C152.341 21.9017 152.069 23.0576 151.524 24.1143C150.979 25.1381 150.195 25.9637 149.241 26.5251C148.253 27.1196 147.197 27.3837 146.005 27.3837C144.983 27.3837 144.063 27.1856 143.245 26.7893C142.427 26.393 141.78 25.8977 141.269 25.2702V33.3942H138.475V14.0749H141.269V15.9903C141.78 15.3959 142.427 14.8675 143.245 14.4712ZM148.969 18.203C148.594 17.5425 148.083 17.0471 147.435 16.7169C146.822 16.3866 146.141 16.2215 145.425 16.2215C144.71 16.2215 144.063 16.3866 143.415 16.7499C142.802 17.1132 142.291 17.6085 141.882 18.269C141.473 18.9295 141.303 19.7221 141.303 20.6137C141.303 21.5054 141.507 22.298 141.882 22.9915C142.257 23.652 142.768 24.1804 143.415 24.5106C144.029 24.8739 144.71 25.039 145.425 25.039C146.141 25.039 146.822 24.8739 147.435 24.5106C148.049 24.1474 148.56 23.619 148.969 22.9585C149.343 22.265 149.548 21.4724 149.548 20.5807C149.514 19.656 149.343 18.8635 148.969 18.203Z" fill="#0B0D17"/>
<path d="M167.434 21.6375H157.111C157.179 22.6943 157.588 23.5199 158.303 24.1474C159.019 24.7748 159.905 25.1051 160.961 25.1051C162.46 25.1051 163.516 24.5106 164.163 23.2887H167.195C166.787 24.4776 166.037 25.4683 164.981 26.2609C163.925 27.0205 162.596 27.4168 160.995 27.4168C159.7 27.4168 158.542 27.1196 157.52 26.5581C156.498 25.9967 155.68 25.2041 155.101 24.1804C154.522 23.1566 154.215 21.9677 154.215 20.6137C154.215 19.2597 154.488 18.0709 155.067 17.0471C155.646 16.0234 156.43 15.2308 157.452 14.6694C158.474 14.1079 159.632 13.8438 160.961 13.8438C162.221 13.8438 163.38 14.1079 164.368 14.6363C165.356 15.1647 166.139 15.9243 166.684 16.915C167.229 17.9057 167.502 18.9956 167.502 20.2835C167.536 20.7789 167.502 21.2412 167.434 21.6375ZM164.606 19.4249C164.606 18.4341 164.231 17.6416 163.516 17.0141C162.8 16.4197 161.915 16.1224 160.859 16.1224C159.905 16.1224 159.053 16.4197 158.372 17.0141C157.69 17.6085 157.281 18.4011 157.145 19.4249H164.606Z" fill="#0B0D17"/>
<path d="M172.34 26.8215C171.488 26.4583 170.841 25.9299 170.33 25.3024C169.853 24.6749 169.58 23.9484 169.546 23.1558H172.442C172.476 23.7172 172.749 24.1796 173.26 24.5429C173.771 24.9061 174.384 25.1043 175.133 25.1043C175.917 25.1043 176.53 24.9722 176.973 24.6749C177.416 24.3777 177.621 24.0145 177.621 23.5521C177.621 23.0568 177.382 22.6935 176.905 22.4623C176.428 22.2311 175.645 21.9669 174.622 21.6697C173.6 21.4055 172.783 21.1413 172.135 20.8771C171.488 20.613 170.943 20.2497 170.466 19.7213C169.989 19.1929 169.751 18.4994 169.751 17.6408C169.751 16.9472 169.955 16.3198 170.398 15.7253C170.807 15.1309 171.42 14.7016 172.238 14.3713C173.021 14.0411 173.941 13.876 174.963 13.876C176.496 13.876 177.723 14.2392 178.677 14.9988C179.631 15.7584 180.108 16.7821 180.176 18.0701H177.382C177.348 17.4756 177.075 17.0133 176.633 16.683C176.19 16.3198 175.61 16.1547 174.827 16.1547C174.077 16.1547 173.532 16.2868 173.123 16.551C172.715 16.8151 172.544 17.1784 172.544 17.6077C172.544 17.971 172.68 18.2352 172.953 18.4994C173.226 18.7306 173.532 18.9287 173.907 19.0608C174.282 19.1929 174.827 19.358 175.576 19.5562C176.564 19.8204 177.348 20.0515 177.995 20.3157C178.609 20.5799 179.154 20.9762 179.631 21.4716C180.073 21.967 180.312 22.6605 180.346 23.4861C180.346 24.2456 180.142 24.9061 179.699 25.4675C179.29 26.062 178.677 26.5243 177.893 26.8546C177.109 27.1848 176.19 27.3499 175.168 27.3499C174.111 27.3829 173.157 27.1848 172.34 26.8215Z" fill="#0B0D17"/>
<path d="M183.514 11.8288C183.174 11.4986 183.003 11.0693 183.003 10.6069C183.003 10.1116 183.174 9.71526 183.514 9.38501C183.855 9.05477 184.298 8.88965 184.775 8.88965C185.252 8.88965 185.695 9.05477 186.036 9.38501C186.376 9.71526 186.547 10.1446 186.547 10.6069C186.547 11.1023 186.376 11.4986 186.036 11.8288C185.695 12.1591 185.286 12.3242 184.775 12.3242C184.298 12.3242 183.855 12.1591 183.514 11.8288ZM186.172 14.0745V27.1852H183.378V14.0745H186.172Z" fill="#0B0D17"/>
<path d="M199.527 14.5042C200.379 14.9336 201.026 15.561 201.503 16.4197C201.98 17.2453 202.218 18.269 202.218 19.4579V27.1856H199.459V19.8542C199.459 18.6653 199.152 17.7737 198.539 17.1462C197.926 16.5187 197.108 16.2215 196.052 16.2215C194.996 16.2215 194.178 16.5187 193.565 17.1462C192.952 17.7737 192.645 18.6653 192.645 19.8542V27.1856H189.851V14.0749H192.645V15.561C193.088 15.0326 193.701 14.6033 194.383 14.3061C195.098 14.0089 195.847 13.8438 196.665 13.8438C197.721 13.8438 198.675 14.0749 199.527 14.5042Z" fill="#0B0D17"/>
<path d="M211.554 20.5475L215.915 27.1854H212.746L209.85 22.7271L207.091 27.1854H204.161L208.522 20.7456L204.161 14.0747H207.329L210.259 18.533L213.019 14.0747H215.949L211.554 20.5475Z" fill="#0B0D17"/>
<path d="M96.945 36.7954L92.3457 52.9774H91.1874L86.6221 38.4136L81.9887 52.9774H80.8644L76.3333 36.7954H77.4575L81.4436 51.4913L86.0429 36.7954H87.2354L91.7665 51.5903L95.7867 36.7954H96.945Z" fill="#474A57"/>
<path d="M102.021 52.3496C101.067 51.8212 100.283 51.0947 99.7383 50.104C99.1932 49.1132 98.9207 47.9904 98.9207 46.6694C98.9207 45.3815 99.1932 44.2586 99.7383 43.2679C100.283 42.2772 101.067 41.5506 102.021 41.0223C103.009 40.4939 104.099 40.2627 105.292 40.2627C106.484 40.2627 107.574 40.5269 108.528 41.0223C109.482 41.5506 110.266 42.2772 110.811 43.2349C111.356 44.1926 111.628 45.3485 111.628 46.6364C111.628 47.9574 111.356 49.0802 110.811 50.0709C110.266 51.0617 109.482 51.7882 108.528 52.3166C107.54 52.845 106.45 53.1092 105.257 53.1092C104.065 53.1422 102.975 52.878 102.021 52.3496ZM107.915 51.6231C108.733 51.2268 109.38 50.5993 109.891 49.7737C110.368 48.9481 110.64 47.9244 110.64 46.7024C110.64 45.5136 110.402 44.4898 109.891 43.6642C109.414 42.8386 108.767 42.2111 107.949 41.8148C107.131 41.4186 106.28 41.2204 105.326 41.2204C104.406 41.2204 103.52 41.4186 102.736 41.8148C101.953 42.2111 101.305 42.8386 100.794 43.6642C100.317 44.4898 100.045 45.5136 100.045 46.7024C100.045 47.9244 100.283 48.9481 100.76 49.7737C101.237 50.5993 101.885 51.2268 102.668 51.6231C103.452 52.0194 104.338 52.2175 105.257 52.2175C106.211 52.2175 107.097 52.0194 107.915 51.6231Z" fill="#474A57"/>
<path d="M133.773 41.5838C134.693 42.5085 135.17 43.8625 135.17 45.6458V52.9772H134.114V45.7118C134.114 44.2257 133.739 43.0699 133.024 42.2773C132.274 41.4847 131.286 41.0884 129.992 41.0884C128.663 41.0884 127.607 41.5178 126.789 42.4094C125.972 43.3011 125.563 44.589 125.563 46.2733V52.9112H124.507V45.6458C124.507 44.1597 124.132 43.0038 123.416 42.2113C122.667 41.4187 121.679 41.0224 120.384 41.0224C119.056 41.0224 117.999 41.4517 117.182 42.3434C116.364 43.235 115.955 44.523 115.955 46.2072V52.8451H114.899V40.461H115.955V43.169C116.33 42.1782 116.909 41.4517 117.727 40.9563C118.545 40.461 119.464 40.1968 120.555 40.1968C121.713 40.1968 122.735 40.494 123.587 41.0884C124.439 41.6829 125.018 42.5415 125.324 43.6974C125.631 42.5415 126.21 41.6829 127.096 41.0884C127.982 40.494 129.004 40.1968 130.162 40.1968C131.627 40.1968 132.854 40.6591 133.773 41.5838Z" fill="#474A57"/>
<path d="M142.052 41.2534C143.006 40.593 144.165 40.2957 145.493 40.2957C146.686 40.2957 147.776 40.5599 148.696 41.0883C149.65 41.6167 150.365 42.3432 150.91 43.334C151.455 44.2917 151.694 45.4145 151.694 46.7025C151.694 47.9904 151.421 49.1132 150.91 50.104C150.365 51.0947 149.65 51.8212 148.696 52.3496C147.742 52.878 146.686 53.1422 145.493 53.1422C144.131 53.1422 143.006 52.812 142.052 52.1845C141.098 51.524 140.417 50.6984 140.042 49.7077V52.9771H138.986V35.9365H140.042V43.7633C140.451 42.7395 141.098 41.9139 142.052 41.2534ZM149.956 43.7633C149.513 42.9377 148.9 42.3102 148.083 41.8479C147.299 41.4186 146.345 41.1874 145.323 41.1874C144.335 41.1874 143.415 41.4186 142.631 41.8809C141.814 42.3432 141.201 42.9707 140.724 43.8293C140.281 44.655 140.042 45.6127 140.042 46.7025C140.042 47.7923 140.281 48.783 140.724 49.6086C141.167 50.4342 141.814 51.0947 142.631 51.557C143.449 52.0194 144.335 52.2506 145.323 52.2506C146.379 52.2506 147.299 52.0194 148.083 51.5901C148.866 51.1608 149.513 50.5003 149.956 49.6747C150.399 48.849 150.638 47.8583 150.638 46.7355C150.638 45.5796 150.399 44.5889 149.956 43.7633Z" fill="#474A57"/>
<path d="M162.017 40.6263C162.698 39.3714 163.652 38.4137 164.879 37.6872C166.105 36.9936 167.434 36.6304 168.967 36.6304C170.875 36.6304 172.476 37.0597 173.771 37.9183C175.065 38.777 176.019 39.9658 176.633 41.518H175.406C174.929 40.2961 174.146 39.3053 173.055 38.6118C171.965 37.9183 170.602 37.5551 169.001 37.5551C167.706 37.5551 166.548 37.8523 165.526 38.4467C164.47 39.0412 163.652 39.8998 163.073 40.9896C162.46 42.1124 162.187 43.4004 162.187 44.8865C162.187 46.3726 162.494 47.6605 163.073 48.7503C163.686 49.8401 164.504 50.6988 165.526 51.2932C166.582 51.8876 167.741 52.1849 169.001 52.1849C170.602 52.1849 171.965 51.8216 173.055 51.1281C174.146 50.4015 174.929 49.4438 175.406 48.2219H176.633C176.019 49.7741 175.065 50.963 173.771 51.8216C172.476 52.6802 170.875 53.1095 168.967 53.1095C167.468 53.1095 166.105 52.7463 164.879 52.0528C163.652 51.3592 162.732 50.3685 162.017 49.1136C161.301 47.8587 160.995 46.4386 160.995 44.8534C160.995 43.3013 161.336 41.8812 162.017 40.6263Z" fill="#474A57"/>
<path d="M180.073 43.3009C180.619 42.3432 181.334 41.5837 182.288 41.0553C183.242 40.5269 184.298 40.2627 185.49 40.2627C186.853 40.2627 188.012 40.5929 188.966 41.2204C189.919 41.8809 190.567 42.6735 190.976 43.6972V40.4278H192.032V52.911H190.976V49.6086C190.601 50.6323 189.919 51.458 188.966 52.1184C188.012 52.7789 186.853 53.1092 185.525 53.1092C184.332 53.1092 183.242 52.845 182.322 52.3166C181.368 51.7882 180.653 51.0286 180.108 50.0709C179.562 49.0802 179.324 47.9574 179.324 46.6694C179.324 45.3815 179.528 44.2917 180.073 43.3009ZM190.26 43.7963C189.783 42.9707 189.17 42.3102 188.352 41.8479C187.535 41.3855 186.649 41.1544 185.661 41.1544C184.605 41.1544 183.685 41.3855 182.901 41.8148C182.118 42.2442 181.504 42.8716 181.062 43.7303C180.619 44.5559 180.38 45.5466 180.38 46.6694C180.38 47.7922 180.619 48.783 181.062 49.6086C181.504 50.4342 182.118 51.0617 182.935 51.524C183.719 51.9533 184.639 52.1845 185.661 52.1845C186.649 52.1845 187.569 51.9533 188.386 51.491C189.204 51.0286 189.851 50.4012 190.294 49.5425C190.737 48.7169 190.976 47.7262 190.976 46.6364C190.942 45.6126 190.737 44.6549 190.26 43.7963Z" fill="#474A57"/>
<path d="M198.675 40.9233C199.493 40.4279 200.515 40.1968 201.775 40.1968V41.2866H201.435C200.174 41.2866 199.118 41.6498 198.266 42.3434C197.415 43.0369 197.006 44.1927 197.006 45.7779V52.9772H195.916V40.461H196.972V43.0369C197.312 42.1122 197.857 41.4187 198.675 40.9233Z" fill="#474A57"/>
<path d="M215.778 47.0987H204.637C204.672 48.2216 204.91 49.1462 205.387 49.9388C205.864 50.6984 206.477 51.2928 207.261 51.6561C208.044 52.0524 208.896 52.2175 209.816 52.2175C211.077 52.2175 212.133 51.9203 212.984 51.2928C213.836 50.6984 214.381 49.8728 214.586 48.816H215.71C215.471 50.104 214.824 51.1277 213.768 51.9203C212.712 52.7129 211.417 53.1092 209.816 53.1092C208.624 53.1092 207.533 52.845 206.579 52.3166C205.625 51.7882 204.876 51.0617 204.331 50.0709C203.786 49.0802 203.513 47.9574 203.513 46.6364C203.513 45.3484 203.786 44.1926 204.297 43.2349C204.842 42.2772 205.557 41.5176 206.511 41.0223C207.465 40.5269 208.555 40.2627 209.748 40.2627C210.974 40.2627 212.065 40.5269 212.95 41.0223C213.87 41.5506 214.552 42.2111 215.029 43.0698C215.505 43.9284 215.744 44.8531 215.744 45.8108C215.846 46.4383 215.812 46.8345 215.778 47.0987ZM214.177 43.4661C213.734 42.7065 213.121 42.1121 212.337 41.7488C211.553 41.3855 210.736 41.1874 209.816 41.1874C208.93 41.1874 208.078 41.3855 207.295 41.7488C206.511 42.1121 205.898 42.7065 205.421 43.4661C204.944 44.2256 204.672 45.1833 204.637 46.2731H214.756C214.824 45.1503 214.62 44.2256 214.177 43.4661Z" fill="#474A57"/>
</g>
<defs>
<clipPath id="clip0">
<rect width="58.8857" height="44.2857" fill="white" transform="translate(0 8.85693)"/>
</clipPath>
<clipPath id="clip1">
<rect width="139.581" height="44.2857" fill="white" transform="translate(76.3333 8.85693)"/>
</clipPath>
</defs>
</svg>
